Coordinates
version=1
nRows=14
nColumns=38
inDegrees=no

Units are S.I. units (second, meters, Newtons, ...)
If the header above contains a line with 'inDegrees', this indicates whether rotational values are in degrees (yes) or radians (no).

endheader
time	pelvis_tilt	pelvis_list	pelvis_rotation	pelvis_tx	pelvis_ty	pelvis_tz	hip_flexion_r	hip_adduction_r	hip_rotation_r	knee_angle_r	ankle_angle_r	subtalar_angle_r	mtp_angle_r	hip_flexion_l	hip_adduction_l	hip_rotation_l	knee_angle_l	ankle_angle_l	subtalar_angle_l	mtp_angle_l	lumbar_extension	lumbar_bending	lumbar_rotation	arm_flex_r	arm_add_r	arm_rot_r	elbow_flex_r	pro_sup_r	wrist_flex_r	wrist_dev_r	arm_flex_l	arm_add_l	arm_rot_l	elbow_flex_l	pro_sup_l	wrist_flex_l	wrist_dev_l
5	0.151656	1.28294	1.46095	0.67773	0.512779	0.745277	1.18504	-0.136018	0.058354	1.43339	-0.0894532	0	0	1.09756	-0.283731	-0.148626	1.37466	-0.0685788	0	0	-0.639498	0.253997	0.0825862	0.495405	-0.435799	0.0197951	0.590099	1.30204	0	0	0.24208	-0.281145	0.147112	0.887053	1.5361	0	0
5.01	0.15315	1.28314	1.45895	0.677598	0.512563	0.745319	1.18511	-0.135043	0.0586314	1.43338	-0.0900764	0	0	1.09758	-0.283861	-0.14833	1.37467	-0.0684528	0	0	-0.639604	0.255234	0.0835187	0.496332	-0.436413	0.021557	0.589406	1.30489	0	0	0.242018	-0.282231	0.14931	0.889928	1.52544	0	0
5.02	0.154028	1.28319	1.45747	0.67749	0.512334	0.745372	1.18537	-0.134238	0.0587873	1.43307	-0.0908701	0	0	1.09768	-0.283942	-0.148254	1.37462	-0.0683812	0	0	-0.639526	0.256189	0.0844582	0.496898	-0.436769	0.0224955	0.589078	1.30758	0	0	0.242088	-0.283278	0.151539	0.892566	1.51502	0	0
5.03	0.155125	1.28298	1.45563	0.677416	0.512086	0.745437	1.18557	-0.133141	0.059231	1.43228	-0.0911104	0	0	1.09805	-0.284242	-0.148093	1.3745	-0.0684422	0	0	-0.639296	0.256973	0.0855078	0.497208	-0.436803	0.0227237	0.5891	1.30994	0	0	0.242142	-0.284435	0.153674	0.894832	1.50649	0	0
5.04	0.156626	1.28261	1.45333	0.677351	0.511836	0.745536	1.18551	-0.131952	0.0596466	1.43097	-0.0910312	0	0	1.0985	-0.284664	-0.147849	1.37418	-0.0685375	0	0	-0.639043	0.257672	0.0866481	0.497279	-0.436651	0.0225192	0.589455	1.31218	0	0	0.242262	-0.28548	0.155435	0.896608	1.49959	0	0
5.05	0.157703	1.28239	1.45135	0.677275	0.511585	0.745641	1.18536	-0.131011	0.0597877	1.42995	-0.0910304	0	0	1.0987	-0.284998	-0.147744	1.37381	-0.0685855	0	0	-0.638771	0.258132	0.0877033	0.497043	-0.436406	0.0220012	0.590266	1.31438	0	0	0.242475	-0.286272	0.156704	0.898131	1.49375	0	0
5.06	0.158563	1.28228	1.44948	0.677211	0.511328	0.745764	1.18537	-0.129668	0.0599659	1.42923	-0.091229	0	0	1.09881	-0.285311	-0.14757	1.37348	-0.06864	0	0	-0.638515	0.258407	0.0887272	0.496612	-0.436195	0.0215511	0.591542	1.31656	0	0	0.242748	-0.287031	0.157656	0.899355	1.48971	0	0
5.07	0.159643	1.28189	1.4476	0.677118	0.511097	0.745888	1.18567	-0.128357	0.0602122	1.42834	-0.0913384	0	0	1.09926	-0.285349	-0.147048	1.37312	-0.0686804	0	0	-0.637949	0.258701	0.08905	0.497379	-0.438383	0.0315673	0.592181	1.30383	0	0	0.241957	-0.286604	0.153897	0.900896	1.49596	0	0
5.08	0.161161	1.2821	1.44557	0.677016	0.510885	0.746037	1.18525	-0.127665	0.0599898	1.42747	-0.0916045	0	0	1.09918	-0.285273	-0.146407	1.37294	-0.0687403	0	0	-0.637676	0.259365	0.0898098	0.496756	-0.438337	0.0303186	0.593526	1.30699	0	0	0.242413	-0.287554	0.155442	0.901381	1.49192	0	0
5.09	0.162197	1.28264	1.44408	0.676869	0.510706	0.746187	1.18448	-0.127564	0.0597862	1.42685	-0.0916959	0	0	1.09867	-0.284979	-0.14598	1.37287	-0.0686536	0	0	-0.637555	0.259987	0.0905105	0.495905	-0.438161	0.0287873	0.594444	1.31056	0	0	0.243006	-0.288364	0.156848	0.901496	1.48945	0	0
5.1	0.161696	1.28296	1.44386	0.67672	0.510503	0.746314	1.1842	-0.127074	0.0602992	1.4262	-0.0917882	0	0	1.09815	-0.28446	-0.145996	1.37251	-0.0685293	0	0	-0.637093	0.260217	0.0909666	0.495062	-0.437865	0.027095	0.595079	1.31184	0	0	0.243464	-0.288889	0.157233	0.901524	1.48839	0	0
5.11	0.161419	1.28292	1.4433	0.67662	0.510313	0.746478	1.18379	-0.126149	0.0610507	1.42481	-0.0919241	0	0	1.09787	-0.284085	-0.145827	1.37176	-0.0684199	0	0	-0.636283	0.260532	0.0916024	0.49407	-0.437466	0.0245024	0.595626	1.31236	0	0	0.244035	-0.288931	0.157527	0.901157	1.48742	0	0
5.12	0.163122	1.28345	1.44118	0.676564	0.510229	0.746782	1.18237	-0.125306	0.0612188	1.42365	-0.0921069	0	0	1.09686	-0.284207	-0.145584	1.37086	-0.0684286	0	0	-0.635921	0.261499	0.0919586	0.493509	-0.436734	0.0219668	0.59541	1.3124	0	0	0.244562	-0.289015	0.157694	0.899831	1.48686	0	0
5.13	0.167192	1.28602	1.43689	0.676526	0.510248	0.747379	1.17831	-0.124639	0.0603941	1.42255	-0.0922258	0	0	1.09323	-0.285035	-0.145797	1.36968	-0.0685221	0	0	-0.637705	0.262592	0.0927584	0.493354	-0.435976	0.018452	0.594138	1.3129	0	0	0.24583	-0.289056	0.15812	0.897639	1.48726	0	0
